Poster : http://img163.imageshack.us/img163/1303/scoobydoo13spookytalesf.jpg

Format : AVI
Format/Info : Audio Video Interleave
File size : 1.47 GiB
Duration : 2h 24mn
Overall bit rate : 1 458 Kbps
Writing application : VirtualDubMod 1.5.10.2 (build 2540/release)
Writing library : VirtualDubMod build 2540/release

Video
ID : 0
Format : MPEG-4 Visual
Format profile : Advanced Simple@L5
Format settings, BVOP : 2
Format settings, QPel : No
Format settings, GMC : No warppoints
Format settings, Matrix : Default (H.263)
Muxing mode : Packed bitstream
Codec ID : XVID
Codec ID/Hint : XviD
Duration : 2h 24mn
Bit rate : 1 263 Kbps
Width : 720 pixels
Height : 400 pixels
Display aspect ratio : 3:2
Original display aspect ratio : 16:9
Frame rate : 23.976 fps
Color space : YUV
Chroma subsampling : 4:2:0
Bit depth : 8 bits
Scan type : Progressive
Compression mode : Lossy
Bits/(Pixel*Frame) : 0.183
Stream size : 1.28 GiB (87%)
Writing library : XviD 64

Audio
ID : 1
Format : AC-3
Format/Info : Audio Coding 3
Mode extension : CM (complete main)
Format settings, Endianness : Big
Codec ID : 2000
Duration : 2h 20mn
Bit rate mode : Constant
Bit rate : 192 Kbps
Channel(s) : 1 channel
Channel positions : Front: C
Sampling rate : 48.0 KHz
Bit depth : 16 bits
Compression mode : Lossy
Stream size : 193 MiB (13%)
Alignment : Aligned on interleaves
Interleave, duration : 43 ms (1.03 video frame)
Interleave, preload duration : 512 ms






 
http://www.amazon.com/Scooby-Doo-Spooky-Tales-Around-World/dp/B006Z94HWM




Nobody vacations like Scooby-Doo and the gang. This is arm-scare travel at its very best! And with 13 hair-

raising vacation destinations on two DVDs, that's hours of family fun. Get ready to get shipwrecked in the

Bermuda Triangle with scary skeleton scuba divers and chased through the canals of Venice by the Ghostly

Gondolier, who even kidnaps Daphne! Hop aboard a haunted Aztec barge, but not before Scooby-Doo wows a

vengeful god with his best Mexican hat dance - to say nothing of his airplane cha-cha over the headhunter-

happy jungles of Brazil. Along the way you can bet the Mystery Inc. gang will get to the bottom of each

mystery with plenty of zoinks! (the same in every language), plenty of hijinks, and a whole lot of

international cuisine - leaning tower of pizza anyone?





Source Used



Scooby.Doo.13.Spooky.Tales.From.Around.The.World.D1.DVDR.NTSC.R1.Latino_2012............Thanks




Enjoy

[img]http://img195.imageshack.us/img195/421/vlcsnap2012051906h56m15.png[/img]
[img]http://img855.imageshack.us/img855/7578/vlcsnap2012051906h56m07.png[/img]
[img]http://img210.imageshack.us/img210/6602/vlcsnap2012051906h56m25.png[/img]
[img]http://img405.imageshack.us/img405/1750/vlcsnap2012051906h56m01.png[/img]